<svg xmlns="http://www.w3.org/2000/svg" viewBox="0 0 24 24" fill="white">
  <!-- Main apple body - flipped vertically from classic Mac OS apple -->
  <path d="M12 2C9.5 2 8 3.5 8 3.5C8 3.5 6 3 4.5 5C3 7 3 10 4 13C5 16 7 19.5 9.5 21C11 22 12 22 12 22C12 22 13 22 14.5 21C17 19.5 19 16 20 13C21 10 21 7 19.5 5C18 3 16 3.5 16 3.5C16 3.5 14.5 2 12 2Z" fill-rule="evenodd"/>
  <!-- Leaf pointing downward -->
  <path d="M12 2C12 2 13 4 15 4.5C15 4.5 14 2.5 12 2Z" fill-rule="evenodd"/>
  <!-- Stem going up -->
  <path d="M12 2L12.5 0.5C12.5 0.5 13.5 1 13 2C12.5 3 12 3 12 3L12 2Z" fill-rule="evenodd"/>
</svg>
