<svg width="512" height="512" viewBox="0 0 512 512" fill="none" xmlns="http://www.w3.org/2000/svg">
  <!-- iOS 18 style background with subtle rounded corners -->
  <rect width="512" height="512" rx="110" fill="url(#gradient)"/>

  <!-- Apple logo centered -->
  <g transform="translate(156, 120)">
    <!-- Apple bite and body -->
    <path d="M150 80C150 35.817 115.899 0 71.5 0C27.101 0 -7 35.817 -7 80C-7 115.5 11.5 145.5 37 163C56.5 176 71.5 185 71.5 210V250C71.5 265 85 275 100 275C115 275 128.5 265 128.5 250V210C128.5 185 143.5 176 163 163C188.5 145.5 207 115.5 207 80C207 35.817 172.899 0 128.5 0C120.5 0 113 1.5 106 4"
          fill="white"
          transform="scale(1.3) translate(-30, 50)"/>

    <!-- Leaf on top -->
    <ellipse cx="85" cy="35" rx="15" ry="25"
             fill="white"
             transform="rotate(-20 85 35)"/>
  </g>

  <!-- Gradient definition -->
  <defs>
    <linearGradient id="gradient" x1="0%" y1="0%" x2="100%" y2="100%">
      <stop offset="0%" style="stop-color:#3b82f6;stop-opacity:1" />
      <stop offset="100%" style="stop-color:#8b5cf6;stop-opacity:1" />
    </linearGradient>
  </defs>
</svg>
